<svg width="160" height="32" viewBox="0 0 160 32" fill="none" xmlns="http://www.w3.org/2000/svg">
<g clip-path="url(#clip0)">
<path fill-rule="evenodd" clip-rule="evenodd" d="M28.7492 26.0627H23.8662V9.18137H28.7492V26.0627Z" fill="#00A6FF"/>
<path fill-rule="evenodd" clip-rule="evenodd" d="M29.2078 4.3031C29.2078 5.18033 28.9183 5.87034 28.3393 6.37315C27.7603 6.87595 27.0776 7.12735 26.2911 7.12735C25.5046 7.12735 24.8218 6.87595 24.2428 6.37315C23.6639 5.87034 23.3744 5.18033 23.3744 4.3031C23.3744 3.42587 23.6639 2.73586 24.2428 2.23305C24.8218 1.73025 25.5046 1.47885 26.2911 1.47885C27.0776 1.47885 27.7603 1.73025 28.3393 2.23305C28.9183 2.73586 29.2078 3.42587 29.2078 4.3031Z" fill="#00A6FF"/>
<path fill-rule="evenodd" clip-rule="evenodd" d="M42.808 17.1085C42.808 15.568 42.6059 14.4768 42.2017 13.8349C41.7976 13.1931 41.1039 12.8721 40.1207 12.8721C39.8149 12.8721 39.4981 12.8882 39.1704 12.9203C38.8426 12.9524 38.5258 12.9898 38.22 13.0326V26.0627H33.337V9.75905C33.7521 9.65207 34.2382 9.53974 34.7953 9.42206C35.3524 9.30438 35.9423 9.19741 36.565 9.10112C37.1877 9.00484 37.8267 8.92996 38.4821 8.87647C39.1376 8.82298 39.7821 8.79623 40.4157 8.79623C41.661 8.79623 42.6715 8.95135 43.4471 9.26159C44.2227 9.57183 44.8617 9.94091 45.3642 10.3688C46.0633 9.87672 46.8662 9.4916 47.7729 9.21345C48.6796 8.93531 49.5153 8.79623 50.28 8.79623C51.6564 8.79623 52.787 8.98345 53.6719 9.35787C54.5567 9.7323 55.2613 10.2618 55.7856 10.9465C56.31 11.6312 56.6705 12.4442 56.8671 13.3856C57.0637 14.3271 57.1621 15.3754 57.1621 16.5308V26.0627H52.2791V17.1085C52.2791 15.568 52.077 14.4768 51.6728 13.8349C51.2686 13.1931 50.5749 12.8721 49.5918 12.8721C49.3296 12.8721 48.9636 12.9363 48.4939 13.0647C48.0242 13.1931 47.6364 13.3535 47.3305 13.5461C47.4835 14.0382 47.5818 14.5571 47.6255 15.1027C47.6692 15.6482 47.691 16.2313 47.691 16.8518V26.0627H42.808V17.1085Z" fill="#00A6FF"/>
<path fill-rule="evenodd" clip-rule="evenodd" d="M77.1201 21.1844C77.4478 20.1146 77.6116 18.9272 77.6116 17.622C77.6116 16.2741 77.4096 15.0545 77.0054 13.9633C76.6012 12.8721 76.0168 11.9468 75.2521 11.1872C74.4874 10.4277 73.5479 9.83928 72.4337 9.42206C71.3195 9.00484 70.0523 8.79623 68.6322 8.79623C68.0423 8.79623 67.4251 8.82298 66.7806 8.87647C66.1361 8.92996 65.5025 8.99949 64.8798 9.08508C64.2571 9.17066 63.6618 9.27229 63.0937 9.38997C62.5257 9.50765 62.0232 9.63067 61.5862 9.75905V32H66.4692V25.6454C67.0154 25.8808 67.5835 26.0627 68.1734 26.191C68.7633 26.3194 69.3968 26.3836 70.0741 26.3836C71.2976 26.3836 72.3791 26.1696 73.3185 25.7417C74.258 25.3138 75.0445 24.7147 75.6781 23.9445C76.3117 23.1742 76.7923 22.2542 77.1201 21.1844ZM71.6145 14.204C72.2918 15.092 72.6304 16.2741 72.6304 17.7504C72.6304 20.81 71.4725 22.3398 69.1566 22.3398C68.6541 22.3398 68.1571 22.2756 67.6655 22.1472C67.1739 22.0189 66.7752 21.8584 66.4693 21.6658V13.0326C66.7096 12.9898 67.0155 12.9524 67.3869 12.9203C67.7583 12.8882 68.1625 12.8722 68.5995 12.8722C69.9322 12.8722 70.9372 13.3161 71.6145 14.204Z" fill="#00A6FF"/>
<path fill-rule="evenodd" clip-rule="evenodd" d="M96.9144 21.2325C97.3077 20.1306 97.5043 18.9164 97.5043 17.5899C97.5043 16.2633 97.2967 15.0545 96.8816 13.9633C96.4665 12.8721 95.8875 11.9414 95.1447 11.1711C94.4019 10.4009 93.5116 9.80179 92.4738 9.37387C91.436 8.94595 90.2945 8.73199 89.0492 8.73199C87.8257 8.73199 86.6951 8.94595 85.6573 9.37387C84.6195 9.80179 83.7238 10.4009 82.97 11.1711C82.2162 11.9414 81.6264 12.8721 81.2003 13.9633C80.7743 15.0545 80.5613 16.2633 80.5613 17.5899C80.5613 18.9164 80.7688 20.1306 81.1839 21.2325C81.5991 22.3344 82.178 23.2758 82.9208 24.0568C83.6637 24.8377 84.554 25.4421 85.5917 25.8701C86.6295 26.298 87.782 26.5119 89.0492 26.5119C90.3382 26.5119 91.5016 26.298 92.5394 25.8701C93.5771 25.4421 94.4674 24.8377 95.2103 24.0568C95.9531 23.2758 96.5211 22.3344 96.9144 21.2325ZM91.6216 14.1077C92.2224 14.9529 92.5228 16.1136 92.5228 17.5899C92.5228 19.0662 92.2224 20.2376 91.6216 21.1042C91.0208 21.9707 90.1633 22.404 89.049 22.404C87.9348 22.404 87.0718 21.9707 86.4601 21.1042C85.8483 20.2376 85.5424 19.0662 85.5424 17.5899C85.5424 16.1136 85.8483 14.9529 86.4601 14.1077C87.0718 13.2626 87.9348 12.84 89.049 12.84C90.1633 12.84 91.0208 13.2626 91.6216 14.1077Z" fill="#00A6FF"/>
<path fill-rule="evenodd" clip-rule="evenodd" d="M111.662 13.4177C111.225 13.3108 110.711 13.1984 110.121 13.0808C109.531 12.9631 108.898 12.9042 108.221 12.9042C107.915 12.9042 107.549 12.931 107.123 12.9845C106.697 13.038 106.374 13.0968 106.156 13.161V26.0627H101.273V10.08C102.147 9.78045 103.179 9.49696 104.37 9.22951C105.561 8.96206 106.888 8.82834 108.352 8.82834C108.614 8.82834 108.931 8.84439 109.302 8.87648C109.673 8.90857 110.045 8.95136 110.416 9.00485C110.788 9.05834 111.159 9.12253 111.531 9.19742C111.902 9.2723 112.219 9.36323 112.481 9.47021L111.662 13.4177Z" fill="#00A6FF"/>
<path fill-rule="evenodd" clip-rule="evenodd" d="M114.939 4.97707L119.822 4.20682V9.18135H125.688V13.161H119.822V19.0983C119.822 20.1039 120.002 20.9063 120.363 21.5053C120.723 22.1044 121.449 22.404 122.542 22.404C123.066 22.404 123.607 22.3558 124.164 22.2595C124.721 22.1633 125.229 22.0295 125.688 21.8584L126.376 25.5812C125.786 25.8166 125.131 26.0199 124.41 26.191C123.689 26.3622 122.804 26.4478 121.755 26.4478C120.423 26.4478 119.319 26.2713 118.445 25.9182C117.572 25.5652 116.872 25.0731 116.348 24.4419C115.824 23.8107 115.458 23.0458 115.25 22.1472C115.043 21.2486 114.939 20.2537 114.939 19.1625V4.97707Z" fill="#00A6FF"/>
<path fill-rule="evenodd" clip-rule="evenodd" d="M159.181 13.4177C158.744 13.3108 158.23 13.1984 157.64 13.0808C157.05 12.9631 156.417 12.9042 155.74 12.9042C155.434 12.9042 155.068 12.931 154.642 12.9845C154.216 13.038 153.893 13.0968 153.675 13.161V26.0627H148.792V10.08C149.666 9.78045 150.698 9.49696 151.889 9.22951C153.08 8.96206 154.407 8.82834 155.871 8.82834C156.133 8.82834 156.45 8.84439 156.821 8.87648C157.192 8.90857 157.564 8.95136 157.935 9.00485C158.307 9.05834 158.678 9.12253 159.049 9.19742C159.421 9.2723 159.738 9.36323 160 9.47021L159.181 13.4177Z" fill="#00A6FF"/>
<path fill-rule="evenodd" clip-rule="evenodd" d="M129.539 13.8189C129.069 14.9421 128.834 16.2526 128.834 17.7503C128.834 18.9913 129.014 20.1467 129.375 21.2165C129.735 22.2863 130.292 23.2116 131.046 23.9926C131.8 24.7735 132.75 25.3886 133.897 25.838C135.044 26.2873 136.393 26.5119 137.945 26.5119C138.556 26.5119 139.168 26.4798 139.78 26.4156C140.392 26.3515 140.965 26.2712 141.5 26.1749C142.036 26.0787 142.522 25.9663 142.959 25.838C143.396 25.7096 143.745 25.5812 144.007 25.4528L143.352 21.5695C142.806 21.8048 142.101 22.0028 141.238 22.1632C140.375 22.3237 139.496 22.4039 138.6 22.4039C137.202 22.4039 136.088 22.1151 135.257 21.5374C134.427 20.9597 133.957 20.1788 133.848 19.1946H144.925C144.947 18.9378 144.969 18.6436 144.991 18.312C145.012 17.9803 145.023 17.6755 145.023 17.3973C145.023 14.5516 144.313 12.396 142.893 10.9304C141.473 9.46479 139.54 8.73199 137.093 8.73199C136.044 8.73199 135.023 8.92456 134.028 9.30968C133.034 9.69481 132.155 10.2618 131.39 11.0106C130.626 11.7595 130.008 12.6956 129.539 13.8189ZM140.091 14.7335C140.211 15.1186 140.282 15.5145 140.304 15.921H133.848C133.914 15.5145 134.018 15.1133 134.16 14.7175C134.302 14.3216 134.504 13.974 134.766 13.6744C135.028 13.3749 135.356 13.1342 135.749 12.9523C136.142 12.7705 136.612 12.6795 137.158 12.6795C137.726 12.6795 138.201 12.7758 138.584 12.9684C138.966 13.1609 139.283 13.407 139.534 13.7065C139.785 14.0061 139.971 14.3484 140.091 14.7335Z" fill="#00A6FF"/>
<path d="M19.1361 16.4403C18.809 15.567 18.2841 14.7769 17.6006 14.1289C16.8415 13.4214 15.9708 12.8375 15.0218 12.3993C13.987 11.9056 12.7685 11.4064 11.3665 10.9018C10.6905 10.6739 10.0771 10.4541 9.51799 10.2384C9.00407 10.0429 8.50962 9.80176 8.04084 9.51814C7.65147 9.28956 7.31363 8.98639 7.04774 8.62693C6.80106 8.2747 6.67141 7.85701 6.67636 7.4305C6.63038 6.70385 6.99745 6.01132 7.63192 5.62772C8.26617 5.23162 9.30935 5.03493 10.7615 5.03764C11.8906 5.01336 13.0167 5.16026 14.0996 5.47308C14.9614 5.74138 15.7988 6.07894 16.6033 6.48231C16.3736 6.19855 16.1241 5.93068 15.8564 5.68062C13.4289 3.43926 9.86434 2.82678 6.79764 4.12413C3.73095 5.42149 1.75391 8.37832 1.77341 11.6383C1.77341 11.7686 1.77341 11.8784 1.77341 12.0046C2.15128 12.3969 2.57092 12.7489 3.02523 13.0545C3.73733 13.6599 4.53744 14.1591 5.39951 14.5358C6.27995 14.9428 6.98515 15.3497 7.86559 15.6427C9.89075 16.302 11.3164 16.9165 12.1426 17.4862C12.9113 17.9407 13.3847 18.7501 13.3945 19.6267C13.3992 20.003 13.3327 20.3769 13.1983 20.7296C13.0545 21.0736 12.8109 21.3692 12.4973 21.5801C12.0919 21.8511 11.6374 22.0444 11.1579 22.1498C10.4625 22.3024 9.75072 22.3721 9.03813 22.3574C7.57428 22.3871 6.11342 22.2159 4.69849 21.8487C3.66334 21.5662 2.66184 21.1775 1.71082 20.6889L0 25.3932C0.43567 25.6322 0.884188 25.8482 1.34362 26.0403C1.96199 26.2969 2.59775 26.5117 3.24638 26.6832C4.08422 26.9067 4.93578 27.078 5.79592 27.196C6.86588 27.3416 7.9453 27.411 9.02561 27.4035C12.578 27.4035 15.236 26.7253 16.9997 25.3688C18.7634 24.0123 19.6452 22.1132 19.6452 19.6715C19.6727 18.5736 19.5003 17.4796 19.1361 16.4403Z" fill="url(#paint0_linear)"/>
<path d="M1.16419 11.0279C1.63827 11.796 2.25696 12.4698 2.98767 13.0138C3.69978 13.6192 4.49989 14.1184 5.36195 14.4951C6.2424 14.9021 6.9768 15.3416 7.86559 15.6427C9.89076 16.302 11.3164 16.9165 12.1426 17.4862C12.9113 17.9407 13.3847 18.7501 13.3945 19.6267C13.3992 20.003 13.3327 20.3768 13.1983 20.7296C13.0545 21.0736 12.8109 21.3692 12.4973 21.5801C12.0919 21.8511 11.6374 22.0444 11.1579 22.1498C10.4625 22.3024 9.75072 22.3721 9.03813 22.3574C7.57428 22.3871 6.11342 22.2159 4.69849 21.8487C3.66334 21.5662 2.66184 21.1775 1.71082 20.6889L0 25.3932C0.350509 25.5845 0.834546 25.8286 1.34362 26.0403C1.96199 26.2969 2.59775 26.5117 3.24638 26.6832C4.08422 26.9067 4.93578 27.078 5.79592 27.196C6.59945 27.307 7.40895 27.3723 8.22027 27.3913C11.8711 26.5905 14.7118 23.7931 15.4975 20.225C16.3863 15.1137 13.3277 11.5814 9.87267 10.3768C9.76001 10.3361 9.65152 10.2954 9.53468 10.2588" fill="url(#paint1_linear)"/>
<path d="M4.68597 21.8487C3.65511 21.5655 2.65785 21.1767 1.71082 20.6889L0 25.3932C0.64913 25.4711 1.30312 25.5037 1.95701 25.4909C5.21994 25.4982 8.37269 24.3401 10.8199 22.2353C10.2275 22.3357 9.62681 22.382 9.02561 22.3737C7.56097 22.3981 6.1001 22.2214 4.68597 21.8487Z" fill="url(#paint2_linear)"/>
<path d="M10.1439 3.47494C5.52294 3.47942 1.77804 7.13167 1.77344 11.6383C1.77344 11.7685 1.77344 11.8784 1.77344 12.0046C2.08679 12.4156 2.44496 12.7922 2.84166 13.1278C5.58731 15.4596 9.70579 15.8218 12.1343 17.4902C12.4325 17.6863 12.6948 17.9298 12.9104 18.2105C12.9974 17.735 13.0421 17.253 13.044 16.7699C13.0388 14.2806 11.8716 11.929 9.8727 10.3809C7.38993 9.46522 6.81827 8.42343 6.92258 7.43048C7.26892 4.07722 13.3486 4.80566 16.6075 6.4538L15.944 5.52596C14.3457 4.15235 12.2735 3.41959 10.1439 3.47494Z" fill="url(#paint3_linear)"/>
<path d="M15.0843 0.56119C12.7142 -0.118414 8.96295 -0.252707 6.25485 0.56119C3.54675 1.37509 0.571597 3.46273 0.471451 7.6421C0.37071 9.20167 0.836034 10.7461 1.78586 12.0046C1.59811 8.48345 3.75646 5.24484 7.13215 3.98247C10.5078 2.72011 14.3331 3.72109 16.6074 6.46194L18.3599 1.81459C17.3147 1.28902 16.2171 0.869037 15.0843 0.56119Z" fill="url(#paint4_linear)"/>
</g>
<defs>
<linearGradient id="paint0_linear" x1="2.29917" y1="25.501" x2="18.8065" y2="25.501" gradientUnits="userSpaceOnUse">
<stop stop-color="#48D6ED"/>
<stop offset="1" stop-color="#02A0F5"/>
</linearGradient>
<linearGradient id="paint1_linear" x1="-1.28937" y1="28.142" x2="15.7354" y2="28.142" gradientUnits="userSpaceOnUse">
<stop offset="0.02" stop-color="#48D6ED"/>
<stop offset="1" stop-color="#02A0F5"/>
</linearGradient>
<linearGradient id="paint2_linear" x1="0" y1="25.4923" x2="10.8199" y2="25.4923" gradientUnits="userSpaceOnUse">
<stop stop-color="#48D6ED"/>
<stop offset="1" stop-color="#02A0F5"/>
</linearGradient>
<linearGradient id="paint3_linear" x1="-0.847036" y1="19.7253" x2="17.0373" y2="19.7253" gradientUnits="userSpaceOnUse">
<stop stop-color="#02A0F5"/>
<stop offset="1" stop-color="#48D6ED"/>
</linearGradient>
<linearGradient id="paint4_linear" x1="-0.000209951" y1="6.66667" x2="84.7456" y2="6.66667" gradientUnits="userSpaceOnUse">
<stop stop-color="#48D6ED"/>
<stop offset="0.247872" stop-color="#16B0F3"/>
<stop offset="0.508287" stop-color="#02A0F5"/>
</linearGradient>
<clipPath id="clip0">
<rect width="160" height="32" fill="white"/>
</clipPath>
</defs>
</svg>
