<svg width="24" height="18" viewBox="0 0 24 18" fill="none" xmlns="http://www.w3.org/2000/svg">
<path fill-rule="evenodd" clip-rule="evenodd" d="M11.6735 8.33074L14.9993 6.09977L14.1213 5.22178C13.7308 4.83126 13.7308 4.1981 14.1213 3.80757L15.5356 2.39336C15.9261 2.00283 16.5592 2.00283 16.9498 2.39336L22.6066 8.05021C22.9971 8.44074 22.9971 9.0739 22.6066 9.46443L21.1924 10.8786C20.8019 11.2692 20.1687 11.2692 19.7782 10.8786L18.9002 10.0007L16.6693 13.3265C16.9264 14.2523 16.9985 15.232 16.8665 16.2092L16.4345 19.4058C16.3605 19.9531 15.8569 20.3368 15.3096 20.2628C15.0926 20.2335 14.8912 20.1338 14.7364 19.979L5.02101 10.2636C4.63049 9.87307 4.63049 9.2399 5.02101 8.84938C5.17584 8.69455 5.37721 8.59482 5.5942 8.56549L8.79076 8.13353C9.768 8.00147 10.7477 8.07355 11.6735 8.33074Z" fill="#00A6FF"/>
<path opacity="0.3" fill-rule="evenodd" clip-rule="evenodd" d="M8.81802 14.0607L4.77741 18.1013L4.22183 20.7782L6.89873 20.2226L10.9393 16.182L8.81802 14.0607Z" fill="#00A6FF"/>
</svg>
