<svg width="24" height="24" viewBox="0 0 24 24" fill="none" xmlns="http://www.w3.org/2000/svg">
<path fill-rule="evenodd" clip-rule="evenodd" d="M11.6735 8.33087L14.9993 6.09989L14.1213 5.22191C13.7308 4.83138 13.7308 4.19822 14.1213 3.80769L15.5355 2.39348C15.926 2.00295 16.5592 2.00295 16.9497 2.39348L22.6066 8.05033C22.9971 8.44086 22.9971 9.07402 22.6066 9.46455L21.1924 10.8788C20.8019 11.2693 20.1687 11.2693 19.7782 10.8788L18.9002 10.0008L16.6692 13.3267C16.9264 14.2524 16.9985 15.2321 16.8664 16.2093L16.4345 19.4059C16.3605 19.9532 15.8569 20.3369 15.3095 20.263C15.0926 20.2336 14.8912 20.1339 14.7364 19.9791L5.02098 10.2637C4.63046 9.87319 4.63046 9.24003 5.02098 8.8495C5.17581 8.69467 5.37718 8.59494 5.59417 8.56562L8.79073 8.13365C9.76797 8.00159 10.7477 8.07367 11.6735 8.33087Z" fill="#FF7B8C"/>
<path opacity="0.3" fill-rule="evenodd" clip-rule="evenodd" d="M8.81799 14.0605L4.77738 18.1012L4.2218 20.7781L6.8987 20.2225L10.9393 16.1819L8.81799 14.0605Z" fill="#FF7B8C"/>
</svg>
